<?xml version="1.0" standalone="no"?>
<!DOCTYPE svg PUBLIC "-//W3C//DTD SVG 20010904//EN"
 "http://www.w3.org/TR/2001/REC-SVG-20010904/DTD/svg10.dtd">
<svg version="1.0" xmlns="http://www.w3.org/2000/svg"
 width="507.000000pt" height="411.000000pt" viewBox="0 0 507.000000 411.000000"
 preserveAspectRatio="xMidYMid meet">
<metadata>
Created by potrace 1.10, written by Peter Selinger 2001-2011
</metadata>
<g transform="translate(0.000000,411.000000) scale(0.100000,-0.100000)"
fill="#3bff00" stroke="none">
<path d="M701 3118 c-47 -21 -141 -110 -141 -133 0 -7 -7 -26 -15 -41 -8 -16
-15 -39 -15 -52 0 -12 -7 -39 -15 -59 -8 -19 -15 -47 -15 -62 -1 -14 -7 -37
-15 -51 -8 -14 -14 -36 -15 -50 0 -14 -6 -45 -14 -70 -8 -25 -22 -72 -31 -105
-9 -33 -21 -73 -27 -90 -5 -16 -12 -41 -15 -55 -2 -14 -9 -44 -15 -68 -18 -72
19 -148 98 -199 34 -23 164 -83 178 -83 7 0 19 -7 26 -15 7 -8 23 -15 37 -15
13 0 34 -5 46 -12 76 -41 368 -41 444 0 12 7 31 12 42 12 26 0 145 51 195 83
29 19 82 73 89 91 4 9 11 16 17 16 5 0 10 10 10 23 0 12 7 31 15 41 20 26 20
158 1 194 -7 15 -20 40 -27 55 -16 34 -105 127 -121 127 -6 0 -19 6 -27 14
-18 15 -126 36 -191 36 -73 0 -173 -23 -215 -49 -41 -25 -125 -108 -125 -123
0 -4 -9 -8 -20 -8 -18 0 -19 6 -17 123 l2 122 82 5 c74 4 86 8 110 33 28 27
28 29 28 160 0 150 -8 170 -82 208 -53 27 -200 26 -262 -3z m252 -91 c12 -19
24 -149 18 -204 -2 -18 -36 -25 -135 -27 l-91 -1 -3 -231 -2 -231 22 -10 c28
-12 65 2 73 28 8 25 186 189 205 189 9 0 21 5 27 11 6 6 52 14 101 17 108 6
184 -14 244 -65 60 -50 79 -93 79 -187 0 -67 -3 -84 -25 -116 -29 -44 -106
-110 -129 -110 -8 0 -28 -6 -44 -14 -80 -39 -239 -76 -330 -76 -76 0 -196 30
-298 75 -16 7 -37 16 -45 19 -8 3 -22 10 -30 15 -8 4 -31 16 -50 26 -50 25
-100 75 -100 99 0 20 5 38 44 161 9 28 16 61 16 75 1 14 7 36 15 50 8 14 15
39 15 55 0 17 7 41 15 55 8 14 14 36 15 50 0 14 6 45 14 70 8 25 21 68 30 96
9 29 16 61 16 72 0 11 7 25 15 32 8 7 15 16 15 21 0 11 28 39 60 62 19 13 47
17 126 17 95 0 103 -2 117 -23z"/>
<path d="M770 2955 c-21 -22 -22 -27 -10 -50 13 -24 18 -25 94 -24 80 1 80 1
41 13 -26 8 -41 20 -44 32 -4 23 -30 54 -46 54 -6 0 -22 -11 -35 -25z"/>
<path d="M1282 2378 c-7 -7 -12 -20 -12 -31 0 -26 -18 -58 -48 -84 -31 -28
-14 -25 -157 -32 -115 -6 -120 -7 -123 -28 -3 -23 -2 -23 110 -23 94 0 121 4
154 20 49 25 65 38 87 73 31 48 21 137 -11 105z"/>
<path d="M2335 3125 c-16 -8 -40 -14 -52 -15 -12 0 -34 -7 -50 -14 -15 -8 -35
-18 -43 -21 -56 -22 -168 -116 -219 -183 -150 -198 -162 -477 -29 -680 15 -24
28 -45 28 -47 0 -8 97 -101 136 -130 65 -50 123 -76 214 -97 50 -12 204 -14
265 -4 66 12 162 58 237 113 60 46 138 130 138 151 0 6 4 12 9 12 9 0 51 78
51 94 0 4 6 22 14 39 36 82 35 309 -2 374 -6 12 -12 28 -12 37 0 25 -27 71
-89 152 -36 47 -133 130 -171 147 -8 4 -22 11 -30 15 -31 18 -87 41 -130 53
-67 19 -228 21 -265 4z m285 -94 c19 -8 40 -16 45 -18 6 -1 31 -15 57 -31 155
-90 259 -269 261 -450 0 -82 -27 -189 -64 -252 -5 -8 -13 -24 -18 -35 -29 -66
-223 -215 -280 -215 -10 0 -35 -7 -54 -15 -70 -29 -222 -14 -310 31 -16 8 -33
14 -38 14 -9 0 -42 23 -121 83 -26 19 -92 108 -110 147 -49 105 -52 119 -51
246 0 98 4 132 18 162 10 20 27 57 39 81 34 71 136 174 208 209 132 63 125 61
258 59 75 -2 139 -8 160 -16z"/>
<path d="M2205 2734 c-19 -21 -25 -38 -25 -73 1 -65 24 -93 75 -89 35 3 40 6
48 38 29 112 -35 192 -98 124z"/>
<path d="M2620 2738 c-15 -16 -20 -35 -20 -75 0 -70 21 -96 76 -91 l39 3 3 80
c2 66 0 82 -14 92 -27 19 -61 16 -84 -9z"/>
<path d="M2162 2408 c-18 -18 -14 -56 7 -68 12 -6 124 -10 295 -10 269 0 276
0 286 21 7 11 9 32 6 45 l-6 24 -288 0 c-211 0 -291 -3 -300 -12z"/>
<path d="M3840 2987 c-47 -43 -61 -80 -58 -154 2 -53 -2 -66 -26 -102 -16 -23
-38 -51 -50 -63 -12 -13 -38 -49 -59 -80 -76 -113 -70 -110 -205 -106 l-117 3
0 -280 0 -280 430 -3 c324 -2 437 1 460 10 49 20 95 77 95 119 0 25 7 42 26
60 40 37 54 83 54 174 0 94 -16 144 -55 169 -20 13 -25 24 -25 60 0 30 -5 46
-15 50 -8 3 -15 11 -15 18 -1 31 -94 70 -144 61 -49 -10 -56 8 -49 123 8 137
-13 205 -70 227 -9 3 -17 11 -17 17 0 6 -26 10 -62 10 -57 0 -66 -3 -98 -33z
m144 -68 c26 -20 26 -22 26 -142 -1 -111 -3 -124 -23 -148 -12 -14 -36 -31
-54 -38 -17 -7 -41 -23 -52 -35 -21 -22 -21 -30 -19 -266 2 -184 6 -244 16
-248 8 -2 12 7 12 25 0 49 12 53 159 53 75 0 143 4 150 9 24 15 -19 21 -169
24 l-135 2 -1 35 c-1 71 -10 67 182 72 116 3 178 8 186 16 7 7 10 13 8 14 -3
1 -88 4 -190 7 l-185 6 -1 35 c-1 69 -7 66 153 73 81 3 151 11 156 16 6 6 9
12 7 13 -3 0 -75 4 -160 7 l-155 6 2 28 c1 16 8 42 15 58 l13 29 126 0 c120 0
127 -1 153 -25 20 -18 26 -34 26 -65 0 -36 6 -47 39 -77 l39 -35 -1 -91 -2
-92 -37 -24 c-35 -22 -38 -28 -38 -71 0 -32 -6 -53 -20 -68 -20 -21 -24 -21
-409 -22 -246 0 -391 4 -393 10 -2 5 -1 99 2 207 l5 198 94 -4 95 -3 33 38
c18 22 46 57 61 79 15 22 29 42 32 45 16 15 70 89 70 96 0 5 14 22 30 38 29
28 30 33 30 112 0 73 3 86 22 104 28 26 68 26 102 -1z"/>
<path d="M2067 1663 c-32 -31 -37 -43 -37 -82 0 -35 6 -51 23 -67 34 -32 69
-48 100 -46 37 3 42 -16 19 -75 -30 -75 -43 -115 -52 -153 -9 -39 -25 -87 -46
-138 -8 -18 -14 -43 -14 -55 0 -13 -7 -32 -15 -43 -8 -10 -15 -33 -15 -50 0
-33 -21 -57 -59 -69 -12 -4 -45 -29 -71 -56 -52 -53 -67 -102 -54 -176 20
-116 160 -202 261 -162 63 26 78 36 105 73 15 21 28 50 28 63 0 16 6 23 19 23
11 0 23 -4 26 -10 3 -5 27 -19 53 -31 42 -19 60 -20 182 -17 l135 5 45 -48
c26 -27 58 -50 75 -54 17 -3 42 -9 57 -12 41 -8 113 17 153 54 19 17 35 35 35
39 0 4 8 16 17 26 13 15 17 39 16 129 l0 110 -40 46 c-100 119 -216 124 -323
14 l-40 -41 -143 0 -143 0 -48 49 c-52 52 -52 55 -26 131 7 19 18 48 26 63 8
16 14 38 14 50 0 12 7 35 15 51 8 15 15 38 15 50 0 12 7 31 15 42 8 10 15 28
15 39 0 11 9 45 20 75 l19 55 58 -3 c52 -3 63 0 100 27 68 49 70 127 5 181
l-37 30 -226 0 -226 0 -36 -37z m357 -52 c3 -4 28 -6 56 -3 60 6 85 -9 69 -40
-9 -17 -19 -20 -64 -16 -69 6 -117 -16 -126 -57 -8 -34 -25 -85 -45 -133 -8
-18 -14 -43 -14 -56 0 -13 -7 -29 -15 -36 -8 -7 -15 -25 -15 -41 0 -16 -6 -43
-14 -61 -21 -51 -37 -99 -46 -138 -4 -19 -14 -50 -21 -67 l-13 -33 69 -64 c83
-77 96 -80 315 -74 111 2 144 6 153 18 7 8 29 30 50 48 32 27 46 32 88 32 45
0 55 -4 85 -34 39 -39 41 -47 14 -71 -16 -14 -24 -15 -51 -6 -18 6 -49 11 -69
11 -31 0 -44 -7 -74 -40 -20 -22 -41 -40 -46 -40 -6 0 -13 -7 -16 -15 -9 -22
-312 -22 -359 1 -33 15 -132 112 -152 148 -13 24 -33 12 -33 -20 0 -30 -20
-39 -57 -27 -32 11 -42 43 -18 63 8 7 15 21 15 31 0 10 6 33 14 51 7 18 21 60
31 93 16 56 23 78 55 165 7 19 15 51 18 70 2 19 11 44 18 55 8 11 14 31 14 45
0 14 4 30 9 35 10 10 31 85 34 120 2 18 -6 20 -78 25 -77 5 -80 6 -80 30 0 24
3 25 75 31 125 9 219 9 224 0z m-424 -826 c0 -7 -39 -45 -45 -45 -9 0 29 49
38 50 4 0 7 -2 7 -5z m108 -57 c12 -12 22 -29 22 -39 0 -15 -62 -79 -76 -79
-12 0 -58 42 -69 63 -8 17 -8 28 2 47 23 45 77 48 121 8z m783 12 c14 -8 19
-21 19 -48 0 -31 -6 -43 -30 -60 -16 -12 -34 -22 -39 -22 -18 0 -61 54 -61 76
0 48 63 79 111 54z m-721 -19 c0 -11 3 -26 6 -34 3 -9 -4 -25 -15 -36 -12 -12
-21 -28 -21 -36 0 -8 -7 -15 -16 -15 -14 0 -13 5 5 36 12 19 21 51 21 70 0 19
5 34 10 34 6 0 10 -9 10 -19z m764 -102 c-9 -10 -22 -19 -28 -19 -6 0 -4 6 5
13 8 7 19 21 23 32 6 14 10 16 13 7 3 -7 -3 -22 -13 -33z"/>
</g>
</svg>
