<?xml version="1.0" encoding="UTF-8"?>
<svg xmlns="http://www.w3.org/2000/svg" xmlns:xlink="http://www.w3.org/1999/xlink" width="300pt" height="133pt" viewBox="0 0 300 133" version="1.1">
<g id="surface1">
<path style=" stroke:none;fill-rule:nonzero;fill:rgb(0%,50.588235%,100%);fill-opacity:1;" d="M 41.464844 32.085938 C 38.683594 32.765625 33.121094 35.644531 33.121094 36.386719 C 33.121094 36.613281 32.710938 37.226562 32.234375 37.714844 C 31.761719 38.230469 31.347656 38.976562 31.347656 39.394531 C 31.347656 39.785156 30.933594 40.65625 30.460938 41.304688 C 29.988281 41.917969 29.574219 42.824219 29.574219 43.308594 C 29.515625 43.761719 29.160156 44.503906 28.6875 44.957031 C 28.214844 45.410156 27.859375 46.125 27.800781 46.574219 C 27.800781 47.027344 27.445312 48.03125 26.972656 48.839844 C 26.5 49.648438 25.671875 51.167969 25.136719 52.234375 C 24.605469 53.304688 23.894531 54.597656 23.539062 55.148438 C 23.246094 55.664062 22.832031 56.472656 22.652344 56.925781 C 22.535156 57.378906 22.121094 58.347656 21.765625 59.125 C 20.703125 61.453125 22.890625 63.914062 27.5625 65.5625 C 29.574219 66.304688 37.261719 68.246094 38.089844 68.246094 C 38.503906 68.246094 39.214844 68.472656 39.628906 68.730469 C 40.042969 68.992188 40.988281 69.21875 41.816406 69.21875 C 42.585938 69.21875 43.828125 69.378906 44.539062 69.605469 C 49.035156 70.929688 66.304688 70.929688 70.800781 69.605469 C 71.511719 69.378906 72.632812 69.21875 73.285156 69.21875 C 74.824219 69.21875 81.859375 67.566406 84.820312 66.53125 C 86.535156 65.917969 89.667969 64.171875 90.082031 63.589844 C 90.320312 63.296875 90.734375 63.070312 91.089844 63.070312 C 91.382812 63.070312 91.679688 62.75 91.679688 62.328125 C 91.679688 61.9375 92.09375 61.324219 92.566406 61 C 93.75 60.160156 93.75 55.890625 92.625 54.726562 C 92.210938 54.242188 91.441406 53.433594 91.027344 52.949219 C 90.082031 51.847656 84.820312 48.839844 83.871094 48.839844 C 83.515625 48.839844 82.75 48.644531 82.273438 48.386719 C 81.210938 47.902344 74.824219 47.222656 70.976562 47.222656 C 66.660156 47.222656 60.746094 47.964844 58.261719 48.808594 C 55.835938 49.617188 50.867188 52.300781 50.867188 52.785156 C 50.867188 52.914062 50.335938 53.042969 49.683594 53.042969 C 48.621094 53.042969 48.5625 52.851562 48.679688 49.066406 L 48.796875 45.121094 L 53.648438 44.957031 C 58.023438 44.828125 58.734375 44.699219 60.152344 43.890625 C 61.808594 43.019531 61.808594 42.953125 61.808594 38.714844 C 61.808594 33.863281 61.335938 33.21875 56.960938 31.988281 C 53.824219 31.117188 45.128906 31.148438 41.464844 32.085938 Z M 56.367188 35.027344 C 57.078125 35.644531 57.789062 39.847656 57.433594 41.628906 C 57.316406 42.210938 55.304688 42.4375 49.449219 42.5 L 44.066406 42.53125 L 43.886719 50.003906 L 43.769531 57.476562 L 45.070312 57.800781 C 46.726562 58.1875 48.914062 57.734375 49.390625 56.894531 C 49.863281 56.085938 60.390625 50.78125 61.515625 50.78125 C 62.046875 50.78125 62.757812 50.617188 63.109375 50.425781 C 63.464844 50.230469 66.1875 49.972656 69.085938 49.875 C 75.472656 49.679688 79.96875 50.328125 83.515625 51.976562 C 87.066406 53.59375 88.191406 54.984375 88.191406 58.027344 C 88.191406 60.191406 88.011719 60.742188 86.710938 61.777344 C 84.996094 63.199219 80.441406 65.335938 79.082031 65.335938 C 78.609375 65.335938 77.425781 65.53125 76.480469 65.789062 C 71.746094 67.050781 62.34375 68.246094 56.960938 68.246094 C 52.464844 68.246094 45.367188 67.277344 39.332031 65.820312 C 38.386719 65.59375 37.144531 65.304688 36.671875 65.207031 C 36.199219 65.109375 35.371094 64.882812 34.898438 64.722656 C 34.425781 64.589844 33.0625 64.203125 31.941406 63.878906 C 28.984375 63.070312 26.023438 61.453125 26.023438 60.679688 C 26.023438 60.03125 26.320312 59.449219 28.628906 55.46875 C 29.160156 54.566406 29.574219 53.496094 29.574219 53.042969 C 29.632812 52.59375 29.988281 51.878906 30.460938 51.425781 C 30.933594 50.976562 31.347656 50.167969 31.347656 49.648438 C 31.347656 49.097656 31.761719 48.324219 32.234375 47.871094 C 32.710938 47.417969 33.0625 46.707031 33.121094 46.253906 C 33.121094 45.800781 33.476562 44.796875 33.949219 43.988281 C 34.425781 43.179688 35.191406 41.789062 35.726562 40.882812 C 36.257812 39.945312 36.671875 38.910156 36.671875 38.554688 C 36.671875 38.199219 37.085938 37.746094 37.558594 37.519531 C 38.03125 37.292969 38.445312 37 38.445312 36.839844 C 38.445312 36.484375 40.101562 35.578125 41.996094 34.835938 C 43.117188 34.414062 44.773438 34.285156 49.449219 34.285156 C 55.066406 34.285156 55.539062 34.351562 56.367188 35.027344 Z M 56.367188 35.027344 "/>
<path style=" stroke:none;fill-rule:nonzero;fill:rgb(0%,50.588235%,100%);fill-opacity:1;" d="M 45.542969 37.359375 C 44.300781 38.070312 44.242188 38.230469 44.953125 38.976562 C 45.722656 39.75 46.015625 39.785156 50.511719 39.75 C 55.246094 39.71875 55.246094 39.71875 52.9375 39.332031 C 51.398438 39.070312 50.511719 38.683594 50.335938 38.296875 C 50.097656 37.550781 48.5625 36.550781 47.613281 36.550781 C 47.257812 36.550781 46.3125 36.90625 45.542969 37.359375 Z M 45.542969 37.359375 "/>
<path style=" stroke:none;fill-rule:nonzero;fill:rgb(0%,50.588235%,100%);fill-opacity:1;" d="M 75.828125 56.019531 C 75.414062 56.246094 75.117188 56.667969 75.117188 57.023438 C 75.117188 57.863281 74.054688 58.898438 72.277344 59.738281 C 70.445312 60.644531 71.449219 60.546875 62.992188 60.773438 C 56.191406 60.96875 55.894531 61 55.71875 61.679688 C 55.539062 62.425781 55.597656 62.425781 62.222656 62.425781 C 67.785156 62.425781 69.382812 62.296875 71.332031 61.777344 C 74.230469 60.96875 75.175781 60.546875 76.480469 59.417969 C 78.3125 57.863281 77.722656 54.984375 75.828125 56.019531 Z M 75.828125 56.019531 "/>
<path style=" stroke:none;fill-rule:nonzero;fill:rgb(0%,50.588235%,100%);fill-opacity:1;" d="M 138.109375 31.859375 C 137.164062 32.117188 135.746094 32.3125 135.035156 32.34375 C 134.324219 32.34375 133.023438 32.570312 132.078125 32.796875 C 131.191406 33.054688 130.007812 33.378906 129.535156 33.476562 C 126.222656 34.1875 119.597656 37.226562 116.582031 39.394531 C 107.710938 45.800781 107 54.824219 114.867188 61.390625 C 115.753906 62.164062 116.523438 62.84375 116.523438 62.910156 C 116.523438 63.167969 122.257812 66.175781 124.566406 67.113281 C 128.410156 68.730469 131.839844 69.574219 137.222656 70.25 C 140.179688 70.640625 149.289062 70.703125 152.898438 70.382812 C 156.800781 69.992188 162.480469 68.503906 166.917969 66.726562 C 170.464844 65.238281 175.078125 62.523438 175.078125 61.84375 C 175.078125 61.648438 175.316406 61.453125 175.609375 61.453125 C 176.144531 61.453125 178.628906 58.929688 178.628906 58.414062 C 178.628906 58.285156 178.984375 57.703125 179.457031 57.152344 C 181.585938 54.5 181.527344 47.15625 179.335938 45.054688 C 178.984375 44.667969 178.628906 44.148438 178.628906 43.859375 C 178.628906 43.050781 177.03125 41.5625 173.363281 38.941406 C 171.234375 37.421875 165.496094 34.738281 163.25 34.1875 C 162.777344 34.058594 161.949219 33.832031 161.476562 33.703125 C 159.640625 33.121094 156.328125 32.375 153.785156 31.988281 C 149.824219 31.375 140.300781 31.308594 138.109375 31.859375 Z M 154.96875 34.898438 C 156.09375 35.160156 157.335938 35.417969 157.628906 35.480469 C 157.984375 35.515625 159.464844 35.96875 161 36.484375 C 170.167969 39.394531 176.320312 45.183594 176.4375 51.039062 C 176.4375 53.691406 174.84375 57.152344 172.652344 59.191406 C 172.359375 59.449219 171.886719 59.964844 171.589844 60.320312 C 169.875 62.457031 158.398438 67.277344 155.027344 67.277344 C 154.4375 67.277344 152.957031 67.503906 151.832031 67.761719 C 147.691406 68.699219 138.703125 68.214844 133.496094 66.757812 C 132.550781 66.5 131.546875 66.304688 131.25 66.304688 C 130.71875 66.304688 128.765625 65.5625 124.09375 63.621094 C 122.554688 63.007812 118.652344 60.128906 117.585938 58.867188 C 114.6875 55.46875 114.511719 55.019531 114.570312 50.910156 C 114.570312 47.742188 114.808594 46.640625 115.636719 45.671875 C 116.226562 45.023438 117.230469 43.828125 117.941406 43.050781 C 119.953125 40.753906 125.984375 37.421875 130.246094 36.289062 C 138.050781 34.253906 137.636719 34.316406 145.503906 34.382812 C 149.941406 34.445312 153.726562 34.640625 154.96875 34.898438 Z M 154.96875 34.898438 "/>
<path style=" stroke:none;fill-rule:nonzero;fill:rgb(0%,50.588235%,100%);fill-opacity:1;" d="M 130.421875 44.503906 C 129.296875 45.183594 128.941406 45.734375 128.941406 46.867188 C 129.003906 48.96875 130.363281 49.875 133.378906 49.746094 C 135.449219 49.648438 135.746094 49.550781 136.21875 48.515625 C 137.933594 44.894531 134.148438 42.304688 130.421875 44.503906 Z M 130.421875 44.503906 "/>
<path style=" stroke:none;fill-rule:nonzero;fill:rgb(0%,50.588235%,100%);fill-opacity:1;" d="M 154.96875 44.375 C 154.082031 44.894531 153.785156 45.507812 153.785156 46.800781 C 153.785156 49.066406 155.027344 49.90625 158.28125 49.746094 L 160.585938 49.648438 L 160.765625 47.0625 C 160.882812 44.925781 160.765625 44.410156 159.9375 44.085938 C 158.339844 43.472656 156.328125 43.566406 154.96875 44.375 Z M 154.96875 44.375 "/>
<path style=" stroke:none;fill-rule:nonzero;fill:rgb(0%,50.588235%,100%);fill-opacity:1;" d="M 127.878906 55.050781 C 126.8125 55.632812 127.050781 56.863281 128.292969 57.25 C 129.003906 57.445312 135.628906 57.574219 145.742188 57.574219 C 161.652344 57.574219 162.066406 57.574219 162.65625 56.894531 C 163.070312 56.539062 163.191406 55.859375 163.011719 55.4375 L 162.65625 54.660156 L 145.621094 54.660156 C 133.144531 54.660156 128.410156 54.757812 127.878906 55.050781 Z M 127.878906 55.050781 "/>
<path style=" stroke:none;fill-rule:nonzero;fill:rgb(0%,50.588235%,100%);fill-opacity:1;" d="M 227.128906 36.324219 C 224.347656 37.714844 223.519531 38.910156 223.699219 41.304688 C 223.816406 43.019531 223.582031 43.4375 222.160156 44.601562 C 221.214844 45.347656 219.914062 46.253906 219.203125 46.640625 C 218.492188 47.0625 216.957031 48.226562 215.714844 49.226562 C 211.21875 52.882812 211.574219 52.785156 203.589844 52.65625 L 196.667969 52.558594 L 196.667969 70.671875 L 222.101562 70.769531 C 241.265625 70.835938 247.949219 70.738281 249.308594 70.445312 C 252.207031 69.800781 254.929688 67.957031 254.929688 66.597656 C 254.929688 65.789062 255.34375 65.238281 256.46875 64.65625 C 258.832031 63.460938 259.660156 61.972656 259.660156 59.027344 C 259.660156 55.988281 258.714844 54.371094 256.40625 53.5625 C 255.226562 53.140625 254.929688 52.785156 254.929688 51.621094 C 254.929688 50.652344 254.632812 50.132812 254.042969 50.003906 C 253.570312 49.90625 253.15625 49.648438 253.15625 49.421875 C 253.09375 48.417969 247.59375 47.15625 244.636719 47.449219 C 241.738281 47.773438 241.324219 47.191406 241.738281 43.472656 C 242.210938 39.039062 240.96875 36.839844 237.597656 36.128906 C 237.066406 36.03125 236.59375 35.773438 236.59375 35.578125 C 236.59375 35.382812 235.054688 35.253906 232.925781 35.253906 C 229.554688 35.253906 229.023438 35.351562 227.128906 36.324219 Z M 235.648438 38.523438 C 237.183594 39.167969 237.183594 39.234375 237.183594 43.113281 C 237.125 46.707031 237.007812 47.125 235.824219 47.902344 C 235.113281 48.355469 233.695312 48.90625 232.628906 49.132812 C 231.625 49.359375 230.203125 49.875 229.554688 50.261719 C 228.3125 50.976562 228.3125 51.234375 228.429688 58.867188 C 228.550781 64.816406 228.785156 66.757812 229.378906 66.886719 C 229.851562 66.953125 230.085938 66.660156 230.085938 66.078125 C 230.085938 64.496094 230.796875 64.367188 239.492188 64.367188 C 243.925781 64.367188 247.949219 64.234375 248.363281 64.074219 C 249.78125 63.589844 247.238281 63.394531 238.367188 63.296875 L 230.382812 63.234375 L 230.324219 62.101562 C 230.265625 59.804688 229.730469 59.933594 241.089844 59.773438 C 247.949219 59.675781 251.617188 59.511719 252.089844 59.253906 C 252.503906 59.027344 252.679688 58.835938 252.5625 58.800781 C 252.386719 58.769531 247.359375 58.671875 241.324219 58.574219 L 230.382812 58.382812 L 230.324219 57.25 C 230.265625 55.019531 229.910156 55.113281 239.371094 54.886719 C 244.164062 54.792969 248.304688 54.53125 248.601562 54.371094 C 248.953125 54.175781 249.132812 53.984375 249.015625 53.949219 C 248.835938 53.949219 244.578125 53.820312 239.550781 53.722656 L 230.382812 53.53125 L 230.5 52.625 C 230.558594 52.105469 230.972656 51.265625 231.386719 50.75 L 232.15625 49.808594 L 239.609375 49.808594 C 246.707031 49.808594 247.121094 49.84375 248.660156 50.617188 C 249.84375 51.199219 250.195312 51.71875 250.195312 52.722656 C 250.195312 53.886719 250.550781 54.242188 252.503906 55.210938 L 254.8125 56.34375 L 254.75 59.289062 L 254.632812 62.261719 L 252.445312 63.039062 C 250.375 63.75 250.195312 63.945312 250.195312 65.335938 C 250.195312 66.371094 249.84375 67.050781 249.015625 67.535156 C 247.832031 68.214844 247.59375 68.214844 224.824219 68.246094 C 210.273438 68.246094 201.695312 68.117188 201.578125 67.921875 C 201.460938 67.761719 201.519531 64.722656 201.695312 61.226562 L 201.992188 54.824219 L 207.550781 54.953125 L 213.171875 55.050781 L 215.121094 53.820312 C 216.1875 53.109375 217.84375 51.976562 218.730469 51.265625 C 219.617188 50.554688 220.445312 49.90625 220.621094 49.808594 C 221.570312 49.324219 224.761719 46.933594 224.761719 46.707031 C 224.761719 46.542969 225.589844 45.992188 226.539062 45.476562 C 228.253906 44.570312 228.3125 44.410156 228.3125 41.855469 C 228.3125 39.492188 228.488281 39.070312 229.613281 38.488281 C 231.269531 37.648438 233.636719 37.648438 235.648438 38.523438 Z M 235.648438 38.523438 "/>
<path style=" stroke:none;fill-rule:nonzero;fill:rgb(0%,50.588235%,100%);fill-opacity:1;" d="M 122.257812 79.148438 C 120.367188 80.148438 120.070312 80.539062 120.070312 81.800781 C 120.070312 82.929688 120.425781 83.449219 121.429688 83.964844 C 123.441406 85 125.511719 85.519531 127.347656 85.453125 C 129.535156 85.355469 129.832031 85.972656 128.46875 87.878906 C 126.695312 90.304688 125.925781 91.597656 125.394531 92.828125 C 124.863281 94.089844 123.914062 95.640625 122.671875 97.292969 C 122.199219 97.875 121.84375 98.683594 121.84375 99.070312 C 121.84375 99.492188 121.429688 100.105469 120.957031 100.460938 C 120.484375 100.785156 120.070312 101.527344 120.070312 102.078125 C 120.070312 103.144531 118.828125 103.921875 116.582031 104.3125 C 115.871094 104.441406 113.917969 105.25 112.382812 106.121094 C 109.304688 107.835938 108.417969 109.421875 109.1875 111.8125 C 110.371094 115.566406 118.652344 118.347656 124.625 117.054688 C 128.351562 116.214844 129.238281 115.890625 130.835938 114.691406 C 131.722656 114.015625 132.492188 113.074219 132.492188 112.65625 C 132.492188 112.136719 132.847656 111.910156 133.617188 111.910156 C 134.265625 111.910156 134.976562 112.039062 135.152344 112.234375 C 135.332031 112.398438 136.75 112.847656 138.289062 113.238281 C 140.773438 113.851562 141.835938 113.882812 149.054688 113.789062 L 157.039062 113.625 L 159.699219 115.179688 C 161.238281 116.050781 163.132812 116.796875 164.136719 116.925781 C 165.140625 117.023438 166.621094 117.214844 167.507812 117.3125 C 169.933594 117.570312 174.191406 116.761719 176.558594 115.566406 C 177.679688 115.015625 178.628906 114.433594 178.628906 114.304688 C 178.628906 114.175781 179.101562 113.789062 179.632812 113.464844 C 180.402344 112.980469 180.640625 112.203125 180.578125 109.292969 L 180.578125 105.734375 L 178.214844 104.246094 C 172.300781 100.398438 165.4375 100.234375 159.109375 103.792969 L 156.742188 105.121094 L 139.828125 105.121094 L 136.988281 103.535156 C 133.910156 101.851562 133.910156 101.753906 135.449219 99.296875 C 135.863281 98.683594 136.515625 97.746094 136.988281 97.257812 C 137.460938 96.742188 137.816406 96.03125 137.816406 95.640625 C 137.816406 95.253906 138.230469 94.511719 138.703125 93.992188 C 139.175781 93.507812 139.589844 92.761719 139.589844 92.375 C 139.589844 91.988281 140.003906 91.371094 140.476562 91.015625 C 140.949219 90.695312 141.363281 90.113281 141.363281 89.753906 C 141.363281 89.398438 141.898438 88.300781 142.546875 87.328125 L 143.671875 85.550781 L 147.101562 85.648438 C 150.175781 85.746094 150.828125 85.648438 153.015625 84.773438 C 157.039062 83.191406 157.15625 80.667969 153.3125 78.921875 L 151.125 77.949219 L 124.390625 77.949219 Z M 143.375 80.828125 C 143.554688 80.957031 145.03125 81.023438 146.6875 80.925781 C 150.238281 80.730469 151.714844 81.214844 150.769531 82.21875 C 150.238281 82.769531 149.644531 82.867188 146.984375 82.738281 C 142.902344 82.542969 140.0625 83.253906 139.53125 84.582031 C 139.058594 85.679688 138.050781 87.328125 136.867188 88.882812 C 136.394531 89.464844 136.039062 90.273438 136.039062 90.695312 C 136.039062 91.113281 135.628906 91.632812 135.152344 91.859375 C 134.679688 92.085938 134.265625 92.667969 134.265625 93.183594 C 134.265625 93.703125 133.910156 94.574219 133.4375 95.15625 C 132.195312 96.808594 131.25 98.359375 130.71875 99.621094 C 130.480469 100.234375 129.890625 101.238281 129.476562 101.789062 L 128.707031 102.855469 L 132.789062 104.925781 C 137.695312 107.414062 138.464844 107.511719 151.417969 107.320312 C 157.984375 107.253906 159.9375 107.125 160.46875 106.738281 C 160.882812 106.476562 162.183594 105.765625 163.425781 105.183594 C 165.320312 104.3125 166.148438 104.148438 168.632812 104.148438 C 171.292969 104.148438 171.886719 104.277344 173.660156 105.25 C 175.964844 106.511719 176.085938 106.769531 174.488281 107.546875 C 173.539062 107.996094 173.066406 108.03125 171.472656 107.738281 C 170.40625 107.546875 168.574219 107.382812 167.390625 107.382812 C 165.554688 107.382812 164.785156 107.609375 163.011719 108.675781 C 161.828125 109.386719 160.585938 109.972656 160.292969 109.972656 C 159.9375 109.972656 159.523438 110.195312 159.34375 110.457031 C 158.8125 111.167969 140.890625 111.167969 138.109375 110.421875 C 136.160156 109.9375 130.304688 106.800781 129.121094 105.636719 C 128.351562 104.859375 127.167969 105.25 127.167969 106.285156 C 127.167969 107.253906 125.984375 107.546875 123.796875 107.15625 C 121.90625 106.800781 121.3125 105.765625 122.734375 105.121094 C 123.207031 104.894531 123.621094 104.441406 123.621094 104.117188 C 123.621094 103.792969 123.976562 103.050781 124.449219 102.46875 C 124.863281 101.882812 125.691406 100.527344 126.28125 99.457031 C 127.226562 97.648438 127.640625 96.9375 129.535156 94.121094 C 129.949219 93.507812 130.421875 92.472656 130.597656 91.859375 C 130.71875 91.242188 131.25 90.433594 131.664062 90.078125 C 132.136719 89.722656 132.492188 89.078125 132.492188 88.625 C 132.492188 88.171875 132.730469 87.652344 133.023438 87.492188 C 133.617188 87.167969 134.859375 84.742188 135.035156 83.609375 C 135.152344 83.027344 134.679688 82.964844 130.421875 82.800781 C 125.867188 82.640625 125.691406 82.609375 125.691406 81.832031 C 125.691406 81.054688 125.867188 81.023438 130.125 80.828125 C 137.519531 80.539062 143.078125 80.539062 143.375 80.828125 Z M 118.296875 107.546875 C 118.296875 107.769531 115.988281 109 115.636719 109 C 115.101562 109 117.351562 107.414062 117.882812 107.382812 C 118.117188 107.382812 118.296875 107.449219 118.296875 107.546875 Z M 124.683594 109.386719 C 125.394531 109.777344 125.984375 110.328125 125.984375 110.648438 C 125.984375 111.136719 122.320312 113.207031 121.492188 113.207031 C 120.78125 113.207031 118.058594 111.847656 117.410156 111.167969 C 116.9375 110.617188 116.9375 110.261719 117.527344 109.648438 C 118.886719 108.191406 122.082031 108.09375 124.683594 109.386719 Z M 170.996094 109 C 171.824219 109.257812 172.121094 109.679688 172.121094 110.554688 C 172.121094 111.554688 171.765625 111.945312 170.347656 112.492188 C 169.402344 112.882812 168.335938 113.207031 168.039062 113.207031 C 166.976562 113.207031 164.433594 111.457031 164.433594 110.746094 C 164.433594 109.195312 168.160156 108.191406 170.996094 109 Z M 128.351562 109.613281 C 128.351562 109.972656 128.527344 110.457031 128.707031 110.714844 C 128.882812 111.003906 128.46875 111.523438 127.820312 111.878906 C 127.109375 112.265625 126.578125 112.785156 126.578125 113.042969 C 126.578125 113.300781 126.164062 113.527344 125.632812 113.527344 C 124.804688 113.527344 124.863281 113.367188 125.925781 112.363281 C 126.636719 111.75 127.167969 110.714844 127.167969 110.101562 C 127.167969 109.484375 127.464844 109 127.761719 109 C 128.113281 109 128.351562 109.292969 128.351562 109.613281 Z M 173.539062 112.914062 C 173.007812 113.238281 172.238281 113.527344 171.886719 113.527344 C 171.53125 113.527344 171.648438 113.335938 172.179688 113.109375 C 172.652344 112.882812 173.304688 112.429688 173.539062 112.074219 C 173.894531 111.621094 174.132812 111.554688 174.308594 111.847656 C 174.488281 112.074219 174.132812 112.558594 173.539062 112.914062 Z M 173.539062 112.914062 "/>
</g>
</svg>
